<?xml version="1.0" standalone="no"?>
<!DOCTYPE svg PUBLIC "-//W3C//DTD SVG 20010904//EN"
 "http://www.w3.org/TR/2001/REC-SVG-20010904/DTD/svg10.dtd">
<svg version="1.0" xmlns="http://www.w3.org/2000/svg"
 width="600.000000pt" height="600.000000pt" viewBox="0 0 600.000000 600.000000"
 preserveAspectRatio="xMidYMid meet">

<g transform="translate(0.000000,600.000000) scale(0.100000,-0.100000)"
fill="#fff" stroke="none">
<path d="M3524 4816 c-195 -37 -366 -117 -458 -215 -17 -17 -38 -31 -48 -31
-13 0 -24 -13 -34 -37 -19 -47 -72 -103 -96 -103 -20 0 -38 -28 -38 -60 0 -32
-47 -100 -70 -100 -16 0 -20 -7 -20 -33 l0 -32 -349 -143 c-245 -101 -356
-151 -375 -171 -38 -40 -386 -876 -386 -929 0 -28 47 -155 165 -443 191 -465
200 -485 229 -504 47 -31 863 -368 903 -372 33 -4 62 2 135 32 51 20 97 40
102 45 5 5 0 21 -12 37 -10 15 -64 109 -117 208 -54 99 -110 198 -125 220 -15
22 -34 60 -44 85 -25 64 -70 140 -106 178 -17 17 -33 32 -35 32 -2 0 14 -30
36 -66 22 -36 44 -76 49 -89 l9 -24 -42 20 c-61 27 -79 25 -71 -7 4 -15 1 -77
-6 -138 -12 -108 -11 -135 16 -226 7 -25 7 -25 -16 3 -29 37 -46 96 -55 193
-7 77 -33 161 -42 137 -2 -7 1 -22 7 -34 7 -12 18 -70 26 -130 13 -106 35
-171 68 -198 27 -22 18 -30 -21 -19 -63 17 -100 46 -146 116 -24 37 -54 76
-66 86 -21 19 -22 19 -38 -5 -80 -116 -183 -128 -250 -29 -16 23 -43 59 -60
81 -71 88 -67 161 21 370 l56 132 0 117 0 117 38 59 c54 84 160 202 226 253
55 43 55 43 41 72 -9 16 -29 43 -47 61 -30 30 -30 32 -12 44 10 7 28 20 39 29
16 12 16 14 3 9 -12 -4 -21 1 -28 17 -5 13 -16 33 -24 44 -18 24 -11 36 29 58
26 14 27 16 9 17 -15 0 -27 11 -38 34 -20 43 -20 52 2 68 13 10 17 27 17 73 0
44 5 68 20 90 23 34 61 111 69 138 3 9 14 20 23 24 10 3 34 21 55 39 44 39 78
59 78 45 0 -6 -13 -17 -29 -26 -35 -18 -45 -43 -32 -79 15 -37 3 -83 -26 -101
-22 -15 -24 -21 -18 -53 4 -21 6 -66 6 -102 -1 -53 -5 -68 -21 -79 -27 -18
-25 -57 5 -93 20 -23 25 -41 25 -83 0 -34 -5 -57 -15 -65 -23 -19 -18 -46 16
-74 30 -25 49 -33 49 -19 0 3 -15 19 -32 35 l-33 28 35 32 c19 18 46 41 60 51
24 17 24 17 3 12 -13 -3 -32 -8 -43 -11 -18 -5 -20 -1 -20 35 0 28 -7 48 -25
69 -34 40 -31 59 10 79 24 12 31 19 23 25 -8 4 -14 32 -15 70 -1 35 -3 76 -5
93 -3 25 2 32 32 47 19 9 29 17 21 18 -10 0 -12 9 -7 35 4 19 2 43 -4 54 -13
26 -3 50 24 57 25 6 86 132 86 177 0 20 7 30 24 36 29 12 66 73 66 110 0 33
16 51 46 51 24 0 47 27 83 98 14 27 27 42 35 39 8 -3 27 8 42 25 48 51 168
124 259 157 313 113 660 62 914 -134 57 -43 158 -145 199 -200 l23 -30 -17 35
c-69 145 -238 303 -400 375 -146 65 -381 91 -540 61z"/>
<path d="M3630 4575 c-217 -48 -408 -170 -542 -345 l-49 -64 90 -22 c277 -68
520 -261 636 -505 32 -68 82 -235 73 -245 -2 -2 -23 30 -47 71 -190 335 -462
524 -753 525 l-77 0 -16 -52 c-43 -146 -39 -342 11 -514 23 -80 23 -86 8 -124
-9 -23 -15 -43 -12 -45 2 -2 22 -7 43 -10 36 -6 46 -2 100 39 33 26 85 55 115
67 105 40 240 15 333 -63 l27 -23 -20 -32 c-28 -46 -93 -90 -168 -113 -50 -16
-95 -20 -201 -21 -150 -1 -138 -12 26 -25 88 -6 96 -9 150 -49 146 -105 326
-197 490 -249 98 -30 267 -66 315 -66 34 0 35 1 79 103 28 66 44 116 43 142 0
28 -42 142 -138 375 -225 548 -226 548 -255 569 -14 10 -179 82 -366 161 -187
78 -343 145 -347 148 -23 22 171 191 281 247 121 60 184 77 322 82 193 8 336
-24 527 -117 95 -47 96 -48 57 -14 -63 53 -172 110 -275 145 -87 30 -107 33
-245 35 -105 3 -170 -1 -215 -11z"/>
<path d="M2730 4366 c-30 -13 -212 -88 -405 -167 -334 -137 -352 -146 -400
-194 -41 -40 -59 -71 -94 -155 -24 -58 -109 -260 -189 -450 -138 -330 -145
-349 -149 -425 l-4 -80 84 -205 c46 -113 130 -320 187 -460 100 -245 106 -257
160 -310 47 -48 72 -63 180 -107 69 -29 271 -114 450 -189 l325 -138 85 0 85
0 345 143 c190 78 392 161 449 184 118 47 188 101 225 176 13 25 80 181 149
346 69 165 147 350 173 410 47 107 48 113 48 210 l0 100 -111 265 c-61 146
-143 345 -183 442 -80 198 -117 251 -201 294 -58 29 -596 254 -608 254 -4 0
-15 -8 -25 -18 -16 -18 -4 -24 291 -147 170 -71 327 -141 350 -157 24 -16 53
-48 67 -71 13 -23 103 -237 201 -476 l177 -434 -4 -66 c-4 -58 -26 -118 -189
-506 -169 -404 -188 -444 -229 -485 -42 -43 -75 -58 -495 -230 -428 -175 -453
-184 -515 -184 -60 1 -87 10 -380 133 -173 73 -376 158 -450 189 -202 85 -183
58 -379 537 -91 220 -175 429 -189 465 -39 106 -34 129 118 490 72 173 157
374 187 446 78 187 83 191 358 304 579 238 562 230 574 256 6 14 11 27 11 29
0 10 -27 3 -80 -19z"/>
<path d="M2528 2927 c-52 -48 -58 -57 -58 -93 0 -21 5 -46 10 -54 8 -13 10
-13 10 2 0 11 14 24 34 32 36 15 38 19 65 129 5 20 6 37 3 37 -4 0 -33 -24
-64 -53z"/>
<path d="M2252 2321 c-7 -17 -22 -33 -33 -36 -23 -8 -26 -28 -3 -23 23 4 57
51 52 72 -2 12 -7 8 -16 -13z"/>
</g>
</svg>
