<svg xmlns="http://www.w3.org/2000/svg" width="400" height="400" viewBox="0 0 400 400">
    <defs>
        <linearGradient id="a" x1="0.056" y1="0.081" x2="1" y2="0.956" gradientUnits="objectBoundingBox">
            <stop offset="0" stop-color="#880e4f"/>
            <stop offset="1" stop-color="#1a237e"/>
        </linearGradient>
    </defs>
    <path d="M-4120.307,395.936a198.943,198.943,0,0,1-37.542-11.653,200.025,200.025,0,0,1-33.973-18.44,201.445,201.445,0,0,1-29.6-24.422,201.459,201.459,0,0,1-24.423-29.6,200.151,200.151,0,0,1-18.439-33.973,199.037,199.037,0,0,1-11.653-37.542A201.476,201.476,0,0,1-4280,200a201.476,201.476,0,0,1,4.063-40.307,198.965,198.965,0,0,1,11.653-37.542,200.109,200.109,0,0,1,18.439-33.973,201.459,201.459,0,0,1,24.423-29.6,201.452,201.452,0,0,1,29.6-24.423,200.1,200.1,0,0,1,33.973-18.44,198.944,198.944,0,0,1,37.542-11.653A201.494,201.494,0,0,1-4080,0a201.492,201.492,0,0,1,40.307,4.063,198.952,198.952,0,0,1,37.542,11.653,200.111,200.111,0,0,1,33.973,18.44,201.412,201.412,0,0,1,29.6,24.423,201.345,201.345,0,0,1,24.423,29.6,200.039,200.039,0,0,1,18.44,33.973,198.97,198.97,0,0,1,11.653,37.542A201.423,201.423,0,0,1-3880,200a200,200,0,0,1-9.058,59.687,199.1,199.1,0,0,1-25.343,52.5,128.273,128.273,0,0,1-15.523-5.576,273.454,273.454,0,0,1-33.821-17.8c-21.038-12.775-37.959-25.762-38.12-25.888l-37.053-32.25c-.07-.105-7.562-11.416-14.959-23.167-4.286-6.807-7.616-12.3-9.9-16.319-2.866-5.044-4.107-7.815-3.69-8.239.459-.465,3.551-1.751,7.466-3.378,8.794-3.655,22.084-9.18,21.562-11.957-.2-1.042-2.36-1.617-6.432-1.708a71.3,71.3,0,0,1-15.56-2.127,80.154,80.154,0,0,1-12.351-4.179,66.743,66.743,0,0,1-11.071-5.921l-.005,0,.02-.029c.938-1.33,5.691-8.079,7.124-10.362.728-1.16,4.79-5.173,10.325-9.88,3.695-3.141,10.734-8.862,16.36-11.886,3.9-2.095,10.352-3.6,19.182-4.469,7.39-.728,14.9-.874,19.872-.971l1.768-.035.21,0a21.965,21.965,0,0,1,8.107,2.051,67.47,67.47,0,0,1,9.254,4.908,83.373,83.373,0,0,1,14.281,10.943c2.744,2.869,7.479,9.349,11.512,15.759,6.82,10.834,8.861,16.772,9.47,19.347.548,2.312.235,6.772-.927,13.259-.929,5.185-2.4,11.673-4.379,19.282-3.226,12.419-6.713,23.675-7.1,24.918l-.005.017,20.313-35.142,4.189-27.9-4.189-29.538-16.361-27.747-30.854-20.868-36.136-8.07-48.243,13.764c-.079.058-7.957,5.908-17.3,13.851-5.42,4.61-10.206,8.97-14.224,12.958a94.063,94.063,0,0,0-11.368,13.107c-4.174,6.145-7.458,13.756-10.633,21.118l0,.01,0,.005c-2.607,6.043-5.07,11.751-7.811,16.116a23.913,23.913,0,0,1-4.349,5.361,9.463,9.463,0,0,1-5.024,2.453c-2.664.353-6.983,2.888-12.836,7.534-4.686,3.72-10.356,8.79-16.853,15.067-11.05,10.675-20.837,21.336-20.931,21.439a4.85,4.85,0,0,0-1.45,2.432,8.11,8.11,0,0,0-.182,3.294,15.812,15.812,0,0,0,1.631,4.909c1.486,2.96,4.554,4.639,8.105,6.582a41.085,41.085,0,0,1,8.777,5.9,25.826,25.826,0,0,1,7.009,11.534c1.373,4.413,1.194,8.117-.531,11.013a10.375,10.375,0,0,1-4.8,4.13c.687-.161,1.917-.408,3.879-.684,3.177-.447,6.636-2.124,10.279-4.983a60.8,60.8,0,0,0,9.034-9.053,103.361,103.361,0,0,0,8.866-12.566l14.9-6.5,21.51,18.642,9.631,86.4,14.367,42.738,17.052,16.058c-2.233.073-4.479.11-6.677.11A201.486,201.486,0,0,1-4120.307,395.936Zm-63.552-125.786s.007.006.021.006a4.2,4.2,0,0,0,1-.321A3.5,3.5,0,0,0-4183.859,270.15Zm1.023-.315h0Zm-6.022-49.269,8.823,6.1-21.121,2.388Zm43.838-33.046,19.013-21.5,28.042,6.475-47.055,15.028h0Z"
          transform="translate(4280)" fill="#fff"/>
</svg>